<?xml version="1.0" standalone="no"?>
<!DOCTYPE svg PUBLIC "-//W3C//DTD SVG 20010904//EN"
 "http://www.w3.org/TR/2001/REC-SVG-20010904/DTD/svg10.dtd">
<svg version="1.0" xmlns="http://www.w3.org/2000/svg"
 width="512.000000pt" height="512.000000pt" viewBox="0 0 512.000000 512.000000"
 preserveAspectRatio="xMidYMid meet">

<g transform="translate(0.000000,512.000000) scale(0.100000,-0.100000)"
fill="#000000" stroke="none">
<path d="M4203 4986 c-133 -43 -185 -102 -363 -413 l-145 -251 -81 44 c-91 50
-121 54 -151 22 -12 -13 -112 -180 -222 -371 -149 -258 -201 -357 -201 -381 0
-66 83 -101 127 -53 12 12 99 157 194 322 95 165 175 304 180 308 5 7 32 -4
68 -30 2 -1 -124 -223 -279 -493 l-283 -490 -1259 0 -1259 0 -24 -25 c-24 -23
-25 -29 -25 -160 l0 -135 -135 0 c-131 0 -137 -1 -160 -25 l-25 -24 0 -1311 0
-1311 25 -24 24 -25 2191 0 2191 0 24 25 c24 23 25 29 25 160 l0 135 135 0
c131 0 137 1 160 25 l25 24 0 1309 c0 1275 -1 1310 -19 1333 l-19 24 -475 5
-474 5 358 619 c196 341 363 640 371 665 7 25 13 83 12 127 -1 69 -6 91 -32
147 -41 88 -109 159 -190 199 -56 28 -77 33 -156 35 -57 2 -107 -2 -133 -11z
m212 -161 c89 -36 139 -116 140 -220 0 -68 -2 -74 -62 -180 -34 -60 -68 -118
-75 -128 -12 -16 -29 -8 -213 98 -110 63 -201 120 -202 127 -4 24 131 240 169
271 66 53 162 66 243 32z m-263 -584 l176 -102 -40 -70 -40 -69 -31 19 c-24
14 -323 186 -379 218 -4 2 11 35 34 73 l40 70 31 -19 c18 -10 112 -64 209
-120z m-189 -261 c108 -62 197 -117 197 -122 0 -6 -223 -396 -496 -869 l-496
-859 -41 24 c-23 14 -116 67 -207 119 -91 53 -165 97 -165 99 0 3 809 1407
963 1671 18 31 36 56 40 54 4 -2 96 -55 205 -117z m-1014 -947 c0 -5 -19 -39
-43 -78 l-42 -70 -1112 -3 -1112 -2 0 80 0 80 1155 0 c635 0 1155 -3 1154 -7z
m1851 -1193 l0 -1200 -80 0 -80 0 0 1095 0 1096 -25 24 -24 25 -401 0 c-220 0
-400 2 -400 4 0 6 70 127 83 144 7 9 113 12 468 12 l459 0 0 -1200z m-2048
848 c-72 -116 -192 -335 -192 -349 0 -9 9 -28 21 -43 l21 -26 -81 -141 c-99
-170 -104 -188 -64 -228 l29 -29 -83 -288 c-45 -159 -83 -299 -83 -312 0 -34
43 -72 81 -72 26 0 43 11 93 63 34 34 132 135 219 225 145 149 161 161 185
155 32 -8 62 -5 80 9 7 6 49 75 95 153 82 143 82 143 114 138 26 -4 37 0 60
23 16 16 123 192 237 392 l209 362 393 0 394 0 0 -1200 0 -1200 -2080 0 -2080
0 0 1200 0 1200 1226 0 1226 0 -20 -32z m131 -578 c70 -40 127 -77 127 -82 0
-15 -104 -198 -113 -198 -4 0 -68 35 -142 77 l-134 77 18 30 c10 17 37 64 60
104 23 40 45 71 49 69 4 -2 64 -37 135 -77z m-198 -346 l47 -27 -78 -78 c-43
-43 -79 -77 -81 -75 -2 2 37 150 52 194 6 16 5 16 60 -14z"/>
<path d="M1135 2306 c-218 -43 -405 -168 -525 -353 -89 -136 -125 -259 -125
-433 0 -174 36 -297 124 -432 243 -371 737 -478 1104 -238 427 278 490 875
131 1234 -103 104 -222 171 -374 212 -78 22 -250 26 -335 10z m279 -161 c367
-78 594 -474 473 -824 -36 -102 -81 -174 -157 -251 -254 -253 -647 -253 -901
1 -251 249 -251 648 0 900 156 155 371 219 585 174z"/>
<path d="M1065 2055 c-21 -20 -25 -34 -25 -80 l0 -55 -55 0 c-67 0 -105 -29
-105 -80 0 -51 38 -80 105 -80 l55 0 0 -240 0 -240 -55 0 c-67 0 -105 -29
-105 -80 0 -51 38 -80 105 -80 l55 0 0 -55 c0 -67 29 -105 80 -105 51 0 80 38
80 105 l0 55 40 0 40 0 0 -55 c0 -67 29 -105 80 -105 51 0 80 38 80 105 0 44
3 55 16 55 47 0 102 28 149 75 81 80 96 170 47 269 l-29 56 29 56 c49 99 34
189 -47 269 -47 47 -102 75 -149 75 -13 0 -16 11 -16 55 0 67 -29 105 -80 105
-51 0 -80 -38 -80 -105 l0 -55 -40 0 -40 0 0 55 c0 67 -29 105 -80 105 -19 0
-40 -9 -55 -25z m430 -320 c16 -15 25 -36 25 -55 0 -19 -9 -40 -25 -55 -23
-24 -29 -25 -160 -25 l-135 0 0 80 0 80 135 0 c131 0 137 -1 160 -25z m0 -320
c16 -15 25 -36 25 -55 0 -19 -9 -40 -25 -55 -23 -24 -29 -25 -160 -25 l-135 0
0 80 0 80 135 0 c131 0 137 -1 160 -25z"/>
<path d="M3465 2055 c-16 -15 -25 -36 -25 -55 0 -19 9 -40 25 -55 l24 -25 391
0 391 0 24 25 c16 15 25 36 25 55 0 19 -9 40 -25 55 l-24 25 -391 0 -391 0
-24 -25z"/>
<path d="M3225 1735 c-16 -15 -25 -36 -25 -55 0 -19 9 -40 25 -55 l24 -25 511
0 511 0 24 25 c16 15 25 36 25 55 0 19 -9 40 -25 55 l-24 25 -511 0 -511 0
-24 -25z"/>
<path d="M2905 1415 c-16 -15 -25 -36 -25 -55 0 -19 9 -40 25 -55 l24 -25 671
0 671 0 24 25 c33 32 33 78 0 110 l-24 25 -671 0 -671 0 -24 -25z"/>
<path d="M2105 1095 l-25 -24 0 -271 0 -271 25 -24 24 -25 1071 0 1071 0 24
25 25 24 0 271 0 271 -25 24 -24 25 -1071 0 -1071 0 -24 -25z m2055 -295 l0
-160 -960 0 -960 0 0 160 0 160 960 0 960 0 0 -160z"/>
</g>
</svg>
