<?xml version="1.0" standalone="no"?>
<!DOCTYPE svg PUBLIC "-//W3C//DTD SVG 20010904//EN"
 "http://www.w3.org/TR/2001/REC-SVG-20010904/DTD/svg10.dtd">
<svg version="1.0" xmlns="http://www.w3.org/2000/svg"
 width="512.000000pt" height="512.000000pt" viewBox="0 0 512.000000 512.000000"
 preserveAspectRatio="xMidYMid meet">

<g transform="translate(0.000000,512.000000) scale(0.100000,-0.100000)"
fill="#000000" stroke="none">
<path d="M965 5110 c-196 -39 -358 -162 -451 -342 -68 -134 -64 17 -64 -2205
0 -1449 3 -2027 11 -2065 45 -213 216 -398 434 -470 l70 -23 1595 0 1595 0 69
23 c91 30 128 50 203 107 106 79 205 234 232 363 8 38 11 516 11 1650 0 1771
5 1646 -67 1792 -34 71 -63 102 -527 566 l-491 492 -95 46 c-163 80 -95 76
-1360 75 -619 -1 -1143 -5 -1165 -9z m1978 -582 c4 -264 7 -314 26 -385 74
-293 294 -531 571 -621 112 -36 192 -43 522 -43 l318 1 -2 -1473 -3 -1472 -28
-53 c-36 -68 -94 -124 -165 -159 l-57 -28 -1565 0 -1565 0 -57 28 c-71 35
-129 91 -165 159 l-28 53 0 2025 0 2025 24 45 c13 24 33 57 44 72 30 41 119
99 174 114 37 10 258 13 999 13 l952 1 5 -302z m359 281 c34 -11 80 -33 102
-49 23 -16 240 -228 482 -472 380 -381 474 -483 474 -513 0 -3 -138 -5 -307
-5 -229 0 -325 4 -376 15 -184 39 -355 200 -419 395 -19 58 -21 95 -26 358 -2
160 -1 292 2 292 4 0 34 -9 68 -21z"/>
<path d="M1411 3662 c-53 -26 -76 -65 -76 -125 0 -38 6 -61 22 -83 47 -66 18
-64 782 -64 679 0 693 0 732 21 101 51 98 204 -4 252 -32 15 -101 17 -729 17
-640 0 -696 -1 -727 -18z"/>
<path d="M1385 2669 c-92 -82 -54 -226 67 -250 56 -11 2160 -11 2216 0 121 24
159 168 67 250 l-36 31 -1139 0 -1139 0 -36 -31z"/>
<path d="M1442 1720 c-69 -16 -121 -96 -108 -165 8 -42 46 -88 83 -104 21 -8
327 -11 1160 -9 l1132 3 31 30 c17 16 36 46 42 67 22 76 -29 160 -108 179 -48
11 -2186 10 -2232 -1z"/>
</g>
</svg>
