<?xml version="1.0" standalone="no"?>
<!DOCTYPE svg PUBLIC "-//W3C//DTD SVG 20010904//EN"
 "http://www.w3.org/TR/2001/REC-SVG-20010904/DTD/svg10.dtd">
<svg version="1.0" xmlns="http://www.w3.org/2000/svg"
 width="512.000000pt" height="512.000000pt" viewBox="0 0 512.000000 512.000000"
 preserveAspectRatio="xMidYMid meet">

<g transform="translate(0.000000,512.000000) scale(0.100000,-0.100000)"
fill="#000000" stroke="none">
<path d="M1534 5011 c-68 -31 -114 -111 -114 -198 l0 -31 -197 -4 c-184 -3
-201 -5 -241 -26 -66 -35 -119 -88 -149 -150 l-28 -57 -3 -1022 -2 -1021 -268
-4 c-256 -3 -269 -4 -314 -26 -84 -41 -148 -142 -148 -232 0 -88 65 -191 144
-229 l43 -21 18 -108 c19 -117 47 -205 88 -274 61 -104 165 -204 263 -252 97
-47 94 -80 -12 -142 -187 -109 -298 -279 -340 -522 -17 -98 -19 -104 -48 -119
-58 -30 -93 -63 -122 -115 -24 -44 -28 -65 -28 -123 0 -80 21 -130 76 -181 77
-73 28 -69 776 -72 449 -2 686 1 712 8 173 47 239 278 119 414 -21 24 -55 51
-76 61 -21 10 -39 19 -41 20 -1 1 -11 52 -22 114 -11 61 -31 141 -45 176 -44
119 -135 232 -244 304 l-54 36 1764 5 1764 5 50 27 c60 32 114 87 146 148 l24
45 0 1555 0 1555 -21 46 c-31 66 -78 114 -142 146 -52 26 -69 28 -202 33
l-145 5 -6 62 c-7 79 -41 133 -101 162 -38 18 -62 21 -177 21 -111 0 -138 -3
-170 -20 -71 -36 -111 -105 -111 -193 l0 -37 -977 2 -978 3 -3 35 c-5 77 -15
103 -50 142 -54 60 -81 68 -234 68 -108 0 -141 -4 -174 -19z m291 -391 l0
-245 -110 -3 c-95 -2 -111 0 -122 15 -17 22 -18 434 -2 464 9 18 19 19 122 17
l112 -3 0 -245z m2523 237 c7 -8 10 -94 9 -247 l-2 -235 -120 0 -120 0 -3 225
c-1 124 0 235 3 248 5 21 10 22 114 22 76 0 112 -4 119 -13z m-2928 -349 c0
-128 11 -178 47 -227 44 -57 89 -71 241 -71 149 0 178 8 229 61 46 50 53 76
53 220 l0 129 980 0 980 0 0 -117 c0 -134 10 -179 47 -223 52 -62 88 -72 253
-68 l148 3 39 31 c21 16 48 50 61 74 19 39 22 59 22 172 l0 128 124 0 c135 0
163 -10 210 -73 20 -27 21 -42 24 -308 l3 -279 -1961 0 -1961 0 3 279 c3 266
4 281 24 308 11 15 36 38 54 51 31 21 43 22 206 22 l174 0 0 -112z m3450
-1860 l0 -1151 -25 -42 c-47 -82 116 -75 -1808 -73 l-1715 3 66 55 c118 99
203 255 231 425 20 124 21 125 54 139 131 54 188 226 119 357 -33 64 -97 112
-172 128 -31 7 -174 11 -355 11 l-305 0 0 650 0 650 1955 0 1955 0 0 -1152z
m-3265 -322 c39 -17 55 -42 55 -86 0 -44 -16 -69 -55 -86 -51 -21 -1259 -21
-1310 0 -84 35 -77 158 10 179 11 3 300 5 643 6 516 1 628 -1 657 -13z m-125
-353 c0 -27 -31 -176 -45 -213 -40 -111 -126 -205 -242 -263 -85 -43 -127 -89
-148 -162 -15 -51 -15 -59 0 -104 20 -62 67 -111 147 -153 35 -18 90 -60 123
-93 84 -85 130 -185 150 -332 l7 -53 -525 0 -524 0 18 101 c10 57 30 126 45
158 37 76 141 177 229 223 39 20 80 47 92 60 74 78 69 224 -9 294 -12 12 -57
41 -98 64 -94 55 -169 131 -209 212 -32 64 -61 176 -61 236 l0 32 525 0 c289
0 525 -3 525 -7z m151 -1562 c40 -41 40 -91 0 -132 l-29 -29 -655 0 c-644 0
-655 0 -680 20 -50 40 -40 137 16 160 12 5 314 9 670 9 l649 1 29 -29z"/>
<path d="M2167 4349 c-34 -26 -38 -88 -7 -119 20 -20 33 -20 763 -20 l744 0
21 23 c27 29 28 77 3 108 l-19 24 -740 3 c-736 2 -739 2 -765 -19z"/>
<path d="M1310 3567 c-49 -25 -60 -88 -23 -129 15 -17 49 -18 435 -18 405 0
419 1 438 20 28 28 27 90 -1 116 -20 18 -44 19 -423 22 -309 1 -407 -1 -426
-11z"/>
<path d="M1324 3250 c-28 -11 -54 -48 -54 -76 0 -12 9 -33 21 -48 l20 -26 735
0 c721 0 734 0 754 20 28 28 27 90 -1 116 -20 18 -49 19 -738 21 -394 1 -726
-2 -737 -7z"/>
<path d="M3545 3171 c-22 -10 -52 -31 -67 -47 -42 -46 -747 -1182 -758 -1223
-25 -89 -1 -171 65 -230 73 -64 32 -61 857 -61 848 0 796 -4 869 77 46 50 63
100 57 168 -4 49 -31 95 -372 646 -202 327 -380 607 -394 623 -39 42 -98 66
-162 66 -32 0 -71 -8 -95 -19z m153 -168 c62 -90 706 -1140 710 -1159 2 -13
-4 -30 -17 -43 -21 -21 -23 -21 -754 -21 -800 0 -774 -2 -765 56 4 28 709
1172 732 1186 6 4 25 8 43 8 23 0 37 -7 51 -27z"/>
<path d="M3604 2646 c-17 -8 -34 -21 -38 -31 -10 -27 -7 -334 4 -355 13 -25
65 -41 94 -30 50 19 56 42 56 217 0 150 -2 165 -20 183 -11 11 -24 20 -29 20
-5 0 -15 2 -23 5 -7 2 -27 -2 -44 -9z"/>
<path d="M3581 2084 c-54 -69 10 -157 89 -124 50 21 64 80 29 124 -16 20 -29
26 -59 26 -30 0 -43 -6 -59 -26z"/>
<path d="M1324 2930 c-28 -11 -54 -48 -54 -76 0 -12 9 -33 21 -48 l20 -26 175
0 c161 0 176 2 194 20 28 28 27 90 -1 116 -19 17 -40 19 -178 21 -86 1 -166
-2 -177 -7z"/>
<path d="M1884 2930 c-28 -11 -54 -48 -54 -76 0 -12 9 -33 21 -48 l20 -26 175
0 c161 0 176 2 194 20 28 28 27 90 -1 116 -19 17 -40 19 -178 21 -86 1 -166
-2 -177 -7z"/>
<path d="M2444 2926 c-49 -22 -59 -74 -23 -120 l20 -26 170 0 c156 0 171 2
189 20 28 28 27 90 -1 116 -18 17 -40 19 -173 21 -112 2 -159 -1 -182 -11z"/>
</g>
</svg>
