<?xml version="1.0" encoding="UTF-8"?>
<!DOCTYPE svg PUBLIC "-//W3C//DTD SVG 1.1//EN" "http://www.w3.org/Graphics/SVG/1.1/DTD/svg11.dtd">
<svg xmlns="http://www.w3.org/2000/svg" version="1.1" width="512px" height="512px" style="shape-rendering:geometricPrecision; text-rendering:geometricPrecision; image-rendering:optimizeQuality; fill-rule:evenodd; clip-rule:evenodd" xmlns:xlink="http://www.w3.org/1999/xlink">
<g><path style="opacity:0.926" fill="#000000" d="M 294.5,-0.5 C 299.5,-0.5 304.5,-0.5 309.5,-0.5C 325.06,6.26908 331.56,18.2691 329,35.5C 328.014,42.7913 326.014,49.7913 323,56.5C 314.099,75.3107 303.933,93.3107 292.5,110.5C 314.378,117.971 336.378,125.138 358.5,132C 364.563,134.729 369.397,138.896 373,144.5C 380.595,160.52 387.762,176.686 394.5,193C 394.699,196.274 393.366,198.607 390.5,200C 386.409,201.227 382.909,200.394 380,197.5C 372.667,182.167 365.333,166.833 358,151.5C 356.442,149.641 354.609,148.141 352.5,147C 335.161,141.499 317.828,135.999 300.5,130.5C 300.167,130.833 299.833,131.167 299.5,131.5C 313.624,161.707 327.457,192.04 341,222.5C 341.667,227.833 341.667,233.167 341,238.5C 316.081,300.26 290.581,361.76 264.5,423C 274.795,444.424 284.962,465.924 295,487.5C 301.811,494.327 309.311,495.161 317.5,490C 368.415,465.807 419.415,441.807 470.5,418C 475.542,412.998 477.042,407.165 475,400.5C 447.727,342.954 420.727,285.287 394,227.5C 392.541,221.074 395.041,217.408 401.5,216.5C 404.111,216.556 406.278,217.556 408,219.5C 435.86,278.748 463.527,338.082 491,397.5C 494.156,411.702 489.989,423.202 478.5,432C 426.288,456.94 373.954,481.606 321.5,506C 306.347,512.236 293.18,509.403 282,497.5C 273.605,479.71 264.939,462.044 256,444.5C 248.528,462.582 240.862,480.582 233,498.5C 228.419,504.59 222.585,508.923 215.5,511.5C 210.167,511.5 204.833,511.5 199.5,511.5C 167.037,497.777 134.37,484.277 101.5,471C 96.6316,466.828 96.2982,462.328 100.5,457.5C 102.632,455.883 104.965,455.383 107.5,456C 140.635,469.653 173.802,483.153 207,496.5C 214.29,495.356 219.29,491.356 222,484.5C 256,402.5 290,320.5 324,238.5C 326.37,231.532 325.703,224.865 322,218.5C 307.333,187.167 292.667,155.833 278,124.5C 274.634,120.473 270.634,117.14 266,114.5C 265.248,120.182 264.415,125.849 263.5,131.5C 267.144,134.994 270.311,138.994 273,143.5C 279.123,164.595 271.457,177.262 250,181.5C 234.067,180.066 225.233,171.4 223.5,155.5C 225.119,140.879 233.119,131.879 247.5,128.5C 248.575,123.566 249.242,118.566 249.5,113.5C 214.979,125.757 180.646,138.591 146.5,152C 144.667,153.833 142.833,155.667 141,157.5C 105.218,243.396 69.7179,329.396 34.5,415.5C 34.8787,420.757 37.2121,424.924 41.5,428C 53.0506,433.275 64.7173,438.275 76.5,443C 80.9258,448.441 80.2591,453.108 74.5,457C 72.5,457.667 70.5,457.667 68.5,457C 57.1667,452.333 45.8333,447.667 34.5,443C 19.4395,432.483 15.2728,418.649 22,401.5C 57.3333,316.833 92.6667,232.167 128,147.5C 131.531,143.307 135.698,139.807 140.5,137C 173.578,124.53 206.578,111.863 239.5,99C 243.728,97.5877 248.061,96.7544 252.5,96.5C 254.744,74.0336 259.244,52.0336 266,30.5C 270.946,15.7301 280.446,5.39679 294.5,-0.5 Z M 297.5,15.5 C 308.151,14.1536 313.485,18.8202 313.5,29.5C 311.345,43.4613 306.512,56.4613 299,68.5C 292.569,80.3763 285.403,91.7096 277.5,102.5C 274.956,100.981 272.289,99.648 269.5,98.5C 270.625,77.4293 274.458,56.7626 281,36.5C 284.551,27.8035 290.051,20.8035 297.5,15.5 Z M 247.5,145.5 C 257.17,146.321 260.67,151.321 258,160.5C 253.864,165.775 249.031,166.609 243.5,163C 237.796,155.571 239.129,149.737 247.5,145.5 Z"/></g>
<g><path style="opacity:0.923" fill="#000000" d="M 180.5,228.5 C 230.047,229.502 259.88,254.168 270,302.5C 270.896,307.949 270.563,313.282 269,318.5C 263.158,323.04 258.491,322.04 255,315.5C 253.39,280.899 236.223,258.066 203.5,247C 174.781,241.118 150.948,249.285 132,271.5C 113.187,298.646 112.853,325.98 131,353.5C 153.914,380.937 182.081,388.104 215.5,375C 230.554,366.946 241.887,355.28 249.5,340C 258.372,335.871 262.872,338.704 263,348.5C 244.934,383.459 216.101,399.625 176.5,397C 138.54,391.042 114.374,369.542 104,332.5C 96.7821,289.776 111.949,257.943 149.5,237C 159.568,232.736 169.902,229.902 180.5,228.5 Z"/></g>
<g><path style="opacity:0.921" fill="#000000" d="M 194.5,267.5 C 201.253,265.772 205.253,268.272 206.5,275C 205.578,278.166 205.078,281.333 205,284.5C 213.986,287.131 217.986,293.131 217,302.5C 214.57,309.638 210.07,311.305 203.5,307.5C 202.35,304.862 201.016,302.362 199.5,300C 194.828,298.499 190.161,296.999 185.5,295.5C 180.325,297.214 179.325,300.214 182.5,304.5C 191.322,306.152 198.822,310.152 205,316.5C 210.46,327.146 208.96,336.646 200.5,345C 195.597,347.895 190.264,349.562 184.5,350C 183.338,352.816 182.171,355.65 181,358.5C 175.981,363.843 171.314,363.509 167,357.5C 166.329,353.364 166.829,349.364 168.5,345.5C 156.234,340.854 152.901,332.687 158.5,321C 166.378,317.941 171.044,320.607 172.5,329C 177.394,330.298 182.227,331.798 187,333.5C 192.768,331.492 193.602,328.326 189.5,324C 182.264,322.705 175.764,319.871 170,315.5C 161.246,302.505 163.079,291.339 175.5,282C 179.723,280.528 184.057,279.528 188.5,279C 189.285,274.439 191.285,270.606 194.5,267.5 Z"/></g>
<g><path style="opacity:0.915" fill="#000000" d="M 380.5,286.5 C 383.187,286.336 385.854,286.503 388.5,287C 391.964,291.422 394.797,296.256 397,301.5C 411.333,332.167 425.667,362.833 440,393.5C 439.872,403.296 435.372,406.129 426.5,402C 409.872,367.243 393.372,332.409 377,297.5C 375.663,292.872 376.83,289.205 380.5,286.5 Z"/></g>
<g><path style="opacity:0.919" fill="#000000" d="M 346.5,304.5 C 349.978,304.184 353.312,304.684 356.5,306C 373.128,340.757 389.628,375.591 406,410.5C 407.622,419.79 403.789,423.29 394.5,421C 391.371,417.248 388.871,413.081 387,408.5C 372.333,377.167 357.667,345.833 343,314.5C 342.182,310.469 343.349,307.136 346.5,304.5 Z"/></g>
</svg>
