<?xml version="1.0" encoding="UTF-8"?>
<svg xmlns="http://www.w3.org/2000/svg" id="Layer_1" data-name="Layer 1" viewBox="0 0 24 24" width="512" height="512"><path d="M22.73,12.68l-4.14-2.38c-.11-.06-.22-.1-.34-.14V4.6c0-.88-.49-1.7-1.27-2.15L13.33,.35c-.82-.47-1.83-.47-2.65,0l-3.66,2.1c-.78,.45-1.27,1.27-1.27,2.15v5.57c-.12,.04-.23,.08-.34,.14L1.27,12.68c-.78,.45-1.27,1.27-1.27,2.15v4.57c0,.88,.49,1.7,1.27,2.15l3.66,2.1c.41,.23,.87,.35,1.33,.35s.92-.12,1.33-.35l4.42-2.54,4.42,2.54c.41,.23,.87,.35,1.33,.35s.92-.12,1.33-.35l3.66-2.1c.78-.45,1.27-1.27,1.27-2.15v-4.57c0-.88-.49-1.7-1.27-2.15Zm-.5,.87c.08,.05,.15,.11,.22,.17l-4.71,2.7-4.75-2.72,4.4-2.53c.21-.12,.47-.12,.69,0l4.14,2.38ZM6.78,4.35l4.72,2.71v5.78l-4.41-2.53c-.11-.06-.22-.1-.34-.14V4.6c0-.08,.02-.17,.03-.25Zm10.43,0c.02,.08,.03,.16,.03,.25v5.57c-.12,.04-.23,.08-.34,.14l-4.41,2.53V7.06l4.72-2.71ZM11.17,1.22c.51-.29,1.14-.29,1.65,0l3.66,2.1c.08,.05,.15,.11,.22,.17l-4.71,2.7L7.29,3.49c.07-.06,.14-.12,.22-.17l3.66-2.1ZM5.91,11.17c.11-.06,.22-.09,.34-.09s.24,.03,.34,.09l4.4,2.53-4.75,2.72L1.54,13.72c.07-.06,.14-.12,.22-.17l4.14-2.38ZM1.76,20.68c-.47-.27-.76-.76-.76-1.28v-4.57c0-.08,.02-.17,.03-.25l4.72,2.71v5.63c-.11-.04-.22-.07-.33-.13l-3.66-2.1Zm5.31,2.1c-.1,.06-.22,.1-.33,.13v-5.63l4.75-2.73v5.68l-4.42,2.54Zm5.42-2.54v-5.68l4.75,2.73v5.63c-.11-.04-.22-.07-.33-.13l-4.42-2.54Zm10.5-.84c0,.52-.29,1.01-.76,1.28l-3.66,2.1c-.1,.06-.22,.1-.33,.13v-5.63l4.72-2.71c.02,.08,.03,.16,.03,.25v4.57Z"/></svg>
