<?xml version="1.0" encoding="UTF-8"?>
<!DOCTYPE svg PUBLIC "-//W3C//DTD SVG 1.1//EN" "http://www.w3.org/Graphics/SVG/1.1/DTD/svg11.dtd">
<svg xmlns="http://www.w3.org/2000/svg" version="1.1" width="512px" height="512px" style="shape-rendering:geometricPrecision; text-rendering:geometricPrecision; image-rendering:optimizeQuality; fill-rule:evenodd; clip-rule:evenodd" xmlns:xlink="http://www.w3.org/1999/xlink">
<g><path style="opacity:0.931" fill="#000000" d="M 28.5,-0.5 C 33.5,-0.5 38.5,-0.5 43.5,-0.5C 157.644,16.9739 271.977,34.1406 386.5,51C 396.442,52.5485 398.776,57.5485 393.5,66C 391.801,66.9581 389.967,67.4581 388,67.5C 272.825,50.3875 157.658,33.2208 42.5,16C 39.1177,15.1764 35.7844,15.343 32.5,16.5C 32.0133,17.4461 31.6799,18.4461 31.5,19.5C 46.7307,104.487 61.8974,189.487 77,274.5C 77.2735,276.329 78.1068,277.829 79.5,279C 102.585,278.225 125.585,276.391 148.5,273.5C 149.333,260.513 149.833,247.513 150,234.5C 151.902,229.6 155.402,226.433 160.5,225C 226.5,224.333 292.5,224.333 358.5,225C 363.389,225.556 366.889,228.056 369,232.5C 370.339,239.426 370.839,246.426 370.5,253.5C 399.546,251.117 428.546,248.284 457.5,245C 459.004,243.509 459.837,241.676 460,239.5C 466.832,186.848 473.165,134.181 479,81.5C 459.225,78.2457 439.392,75.079 419.5,72C 414.889,68.6729 413.889,64.5062 416.5,59.5C 418.475,57.6794 420.809,56.6794 423.5,56.5C 443.873,59.451 464.206,62.6177 484.5,66C 492.194,69.0542 495.861,74.7209 495.5,83C 489.041,135.838 482.541,188.671 476,241.5C 475.336,251.157 470.502,257.657 461.5,261C 431.192,264.164 400.859,266.998 370.5,269.5C 370.5,294.833 370.5,320.167 370.5,345.5C 380.566,345.105 390.566,345.605 400.5,347C 407.794,352.468 409.294,359.301 405,367.5C 361.867,414.301 318.367,460.801 274.5,507C 271.901,508.795 269.234,510.295 266.5,511.5C 261.833,511.5 257.167,511.5 252.5,511.5C 248.884,509.682 245.55,507.348 242.5,504.5C 219.516,479.682 196.35,455.016 173,430.5C 168.429,420.544 171.595,416.044 182.5,417C 207.167,443 231.833,469 256.5,495C 258.833,495.667 261.167,495.667 263.5,495C 305.2,450.968 346.534,406.634 387.5,362C 379.833,361.667 372.167,361.333 364.5,361C 359.974,359.141 356.808,355.974 355,351.5C 354.5,314.502 354.333,277.502 354.5,240.5C 291.5,240.5 228.5,240.5 165.5,240.5C 165.975,278.215 165.475,315.882 164,353.5C 162.108,357.058 159.275,359.558 155.5,361C 147.5,361.333 139.5,361.667 131.5,362C 141.667,372.833 151.833,383.667 162,394.5C 163.846,405.16 159.68,408.66 149.5,405C 138.333,393.167 127.167,381.333 116,369.5C 109.557,360.781 110.723,353.281 119.5,347C 129.42,345.577 139.42,345.077 149.5,345.5C 149.667,326.83 149.5,308.164 149,289.5C 124.634,292.715 100.134,294.548 75.5,295C 69.7284,292.894 65.5617,289.061 63,283.5C 46.9039,196.925 31.2372,110.258 16,23.5C 14.1451,12.2052 18.3118,4.20517 28.5,-0.5 Z M 236.5,119.5 C 237.497,119.47 238.164,119.97 238.5,121C 242.642,132.428 246.975,143.762 251.5,155C 242.149,155.832 232.816,155.665 223.5,154.5C 228.132,142.911 232.465,131.244 236.5,119.5 Z M 235.5,310.5 C 243.328,309.493 246.494,312.826 245,320.5C 240.162,326.036 235.829,325.703 232,319.5C 231.481,315.868 232.647,312.868 235.5,310.5 Z M 277.5,384.5 C 285.33,383.495 288.496,386.828 287,394.5C 282.295,399.964 277.962,399.631 274,393.5C 273.333,391.833 273.333,390.167 274,388.5C 275.376,387.295 276.542,385.962 277.5,384.5 Z"/></g>
<g><path style="opacity:0.922" fill="#000000" d="M 139.5,91.5 C 154.918,89.3918 168.418,93.3918 180,103.5C 182.29,112.789 178.79,116.622 169.5,115C 159.752,107.201 149.085,105.535 137.5,110C 131.965,114.443 131.299,119.443 135.5,125C 144.386,128.943 153.386,132.61 162.5,136C 183.611,145.333 188.777,160.167 178,180.5C 166.006,192.527 151.84,196.027 135.5,191C 124.632,188.416 116.632,182.249 111.5,172.5C 113.453,164.691 118.12,162.525 125.5,166C 136.245,177.246 148.579,179.579 162.5,173C 168.677,167.288 169.01,161.288 163.5,155C 151.534,149.675 139.534,144.341 127.5,139C 116.429,129.872 113.929,118.706 120,105.5C 125.005,98.649 131.505,93.9823 139.5,91.5 Z"/></g>
<g><path style="opacity:0.933" fill="#000000" d="M 232.5,91.5 C 237.765,90.5706 242.265,91.9039 246,95.5C 257.463,125.39 268.63,155.39 279.5,185.5C 278.429,190.072 275.596,192.739 271,193.5C 268.763,192.944 266.763,191.944 265,190.5C 262.496,184.316 259.996,178.15 257.5,172C 243.837,171.5 230.171,171.333 216.5,171.5C 214.946,179.005 211.946,185.838 207.5,192C 198.434,194.37 194.601,190.87 196,181.5C 206.667,153.5 217.333,125.5 228,97.5C 229.332,95.34 230.832,93.34 232.5,91.5 Z M 236.5,119.5 C 232.465,131.244 228.132,142.911 223.5,154.5C 232.816,155.665 242.149,155.832 251.5,155C 246.975,143.762 242.642,132.428 238.5,121C 238.164,119.97 237.497,119.47 236.5,119.5 Z"/></g>
<g><path style="opacity:0.934" fill="#000000" d="M 298.5,91.5 C 304.348,90.0017 308.181,92.0017 310,97.5C 310.5,124.165 310.667,150.831 310.5,177.5C 319.173,177.334 327.84,177.5 336.5,178C 341.833,182.667 341.833,187.333 336.5,192C 323.492,193.91 310.492,193.91 297.5,192C 296.299,191.097 295.465,189.931 295,188.5C 294.333,157.5 294.333,126.5 295,95.5C 295.69,93.6498 296.856,92.3164 298.5,91.5 Z"/></g>
<g><path style="opacity:0.931" fill="#000000" d="M 360.5,91.5 C 374.504,91.3334 388.504,91.5001 402.5,92C 406.861,94.2258 408.361,97.7258 407,102.5C 406.167,104.667 404.667,106.167 402.5,107C 392.172,107.5 381.839,107.666 371.5,107.5C 371.5,116.5 371.5,125.5 371.5,134.5C 381.172,134.334 390.839,134.5 400.5,135C 403.516,136.529 404.849,139.029 404.5,142.5C 404.437,147.064 402.104,149.564 397.5,150C 388.84,150.5 380.173,150.666 371.5,150.5C 371.5,159.167 371.5,167.833 371.5,176.5C 381.506,176.334 391.506,176.5 401.5,177C 407.448,179.433 408.948,183.6 406,189.5C 405.167,190.333 404.333,191.167 403.5,192C 389.167,192.667 374.833,192.667 360.5,192C 359.069,191.535 357.903,190.701 357,189.5C 355.349,158.586 355.016,127.586 356,96.5C 357.025,94.313 358.525,92.6464 360.5,91.5 Z"/></g>
<g><path style="opacity:0.926" fill="#000000" d="M 231.5,294.5 C 249.566,291.913 259.899,299.58 262.5,317.5C 259.246,335.575 248.579,342.742 230.5,339C 216.729,331.946 212.562,321.112 218,306.5C 221.428,301.235 225.928,297.235 231.5,294.5 Z M 235.5,310.5 C 232.647,312.868 231.481,315.868 232,319.5C 235.829,325.703 240.162,326.036 245,320.5C 246.494,312.826 243.328,309.493 235.5,310.5 Z"/></g>
<g><path style="opacity:0.915" fill="#000000" d="M 291.5,313.5 C 299.128,314.887 301.628,319.221 299,326.5C 276.833,348.667 254.667,370.833 232.5,393C 227.587,395.587 223.42,394.753 220,390.5C 219.21,387.366 219.543,384.366 221,381.5C 243.167,359.333 265.333,337.167 287.5,315C 289.058,314.79 290.391,314.29 291.5,313.5 Z"/></g>
<g><path style="opacity:0.926" fill="#000000" d="M 274.5,368.5 C 295.806,367.306 305.306,377.306 303,398.5C 295.356,414.161 283.523,418.328 267.5,411C 254.169,397.986 254.169,384.986 267.5,372C 269.925,370.787 272.259,369.621 274.5,368.5 Z M 277.5,384.5 C 276.542,385.962 275.376,387.295 274,388.5C 273.333,390.167 273.333,391.833 274,393.5C 277.962,399.631 282.295,399.964 287,394.5C 288.496,386.828 285.33,383.495 277.5,384.5 Z"/></g>
</svg>
