<?xml version="1.0" standalone="no"?>
<!DOCTYPE svg PUBLIC "-//W3C//DTD SVG 20010904//EN"
 "http://www.w3.org/TR/2001/REC-SVG-20010904/DTD/svg10.dtd">
<svg version="1.0" xmlns="http://www.w3.org/2000/svg"
 width="512.000000pt" height="512.000000pt" viewBox="0 0 512.000000 512.000000"
 preserveAspectRatio="xMidYMid meet">

<g transform="translate(0.000000,512.000000) scale(0.100000,-0.100000)"
fill="#000000" stroke="none">
<path d="M2317 4864 c-47 -11 -110 -36 -125 -50 -2 -1 16 -22 41 -46 24 -24
48 -51 53 -60 8 -15 14 -15 64 -2 248 67 510 -157 694 -595 67 -158 67 -158
14 -171 -100 -25 -343 -106 -470 -156 -75 -30 -142 -54 -149 -54 -7 0 -66 22
-133 49 -133 54 -317 117 -444 151 -45 12 -82 26 -82 31 0 5 11 38 25 75 29
78 29 74 12 74 -7 0 -37 15 -67 34 -30 19 -58 32 -61 28 -4 -4 -22 -47 -40
-95 l-33 -88 -34 6 c-197 37 -490 46 -650 20 -323 -53 -524 -223 -564 -479
-37 -241 90 -563 352 -890 l70 -87 -64 -77 c-90 -108 -188 -259 -246 -377
-132 -267 -153 -488 -65 -672 35 -71 115 -166 162 -192 20 -10 23 -9 28 16 4
16 14 51 24 80 l18 52 -29 28 c-16 15 -43 57 -61 93 -30 60 -32 72 -32 165 0
65 7 123 18 165 24 86 103 250 170 353 60 92 173 237 185 237 4 0 66 -55 137
-122 72 -66 186 -165 255 -220 69 -55 129 -104 133 -108 5 -4 15 -56 23 -115
19 -146 39 -254 80 -424 19 -79 34 -147 34 -151 0 -4 -24 -10 -52 -14 -29 -4
-66 -9 -83 -12 l-30 -5 -1 -80 c0 -50 3 -79 10 -79 6 0 49 7 96 15 47 8 92 15
100 15 10 0 25 -27 44 -78 44 -120 137 -307 206 -412 84 -128 240 -282 336
-333 169 -87 319 -89 494 -4 71 34 102 58 186 142 149 148 270 347 365 598 33
88 33 89 64 83 174 -30 282 -38 460 -33 153 4 207 9 275 27 134 34 240 90 323
169 l71 69 -54 11 c-30 7 -68 18 -85 25 -28 11 -33 10 -80 -26 -59 -45 -182
-91 -282 -107 -146 -22 -566 -2 -597 29 -5 5 7 73 28 157 37 151 86 422 86
473 0 16 3 35 6 44 3 8 69 65 145 126 77 61 195 165 263 230 l123 119 25 -27
c37 -40 140 -181 183 -251 20 -34 39 -61 41 -61 3 0 21 8 42 19 20 10 52 22
70 26 17 3 32 10 32 14 0 10 -106 178 -143 226 -17 22 -55 70 -85 107 l-53 67
74 93 c190 237 315 484 347 688 40 256 -67 473 -289 589 -135 70 -242 93 -466
98 -178 5 -286 -3 -460 -33 -31 -6 -31 -5 -64 83 -96 255 -214 448 -365 599
-86 86 -115 108 -186 142 -132 63 -239 76 -363 46z m-889 -1010 c101 -13 132
-20 132 -31 0 -8 -13 -67 -29 -131 -36 -140 -77 -359 -87 -459 -3 -40 -12 -79
-18 -87 -6 -7 -67 -59 -136 -114 -69 -55 -183 -154 -255 -220 -71 -67 -133
-122 -137 -122 -12 0 -125 145 -185 237 -346 529 -211 904 337 942 121 8 212
5 378 -15z m2532 -4 c190 -39 322 -131 371 -258 31 -79 31 -208 0 -317 -43
-154 -162 -366 -296 -528 l-56 -68 -122 117 c-66 64 -185 167 -263 230 -78 64
-145 122 -148 130 -3 9 -6 28 -6 44 0 51 -49 321 -87 477 -20 84 -35 155 -32
158 14 13 233 33 379 34 127 1 187 -4 260 -19z m-2099 -89 c159 -47 369 -120
369 -130 0 -3 -51 -32 -113 -63 -115 -58 -349 -195 -446 -261 -30 -20 -56 -35
-57 -34 -8 8 102 527 111 527 1 0 62 -18 136 -39z m1328 -93 c29 -120 82 -390
78 -394 -1 -2 -52 29 -112 68 -125 79 -337 200 -437 249 -38 18 -68 36 -68 40
0 14 419 155 501 168 3 1 20 -59 38 -131z m-561 -213 c208 -105 379 -205 552
-322 l115 -78 9 -75 c4 -41 8 -230 8 -420 0 -190 -4 -379 -8 -420 l-9 -74
-115 -79 c-63 -43 -169 -110 -235 -150 -166 -99 -475 -256 -504 -257 -57 0
-527 260 -771 427 l-85 58 -9 70 c-11 90 -11 747 0 845 l9 75 115 78 c177 120
317 202 535 314 110 56 201 103 203 103 2 0 87 -43 190 -95z m-1223 -894 l0
-359 -50 40 c-78 61 -345 308 -345 318 0 10 220 214 324 301 39 32 71 59 71
59 0 0 0 -161 0 -359z m2318 143 c81 -74 147 -139 147 -144 0 -10 -266 -256
-345 -318 l-50 -40 0 358 0 358 50 -40 c28 -22 116 -100 198 -174z m-2044
-897 c84 -57 317 -192 433 -252 65 -33 118 -63 118 -66 0 -12 -364 -135 -482
-163 l-26 -6 -36 148 c-28 115 -76 356 -76 379 0 5 14 -3 69 -40z m1565 -97
c-28 -151 -81 -371 -92 -381 -14 -13 -502 142 -502 160 0 4 30 21 66 39 110
54 308 168 432 247 64 41 117 73 118 72 2 -1 -8 -63 -22 -137z m-629 -385
c107 -42 355 -123 443 -145 41 -11 43 -13 37 -38 -3 -15 -27 -76 -53 -136
-192 -452 -459 -672 -712 -586 -197 67 -382 298 -519 650 l-38 97 116 33 c134
38 352 114 466 163 76 32 82 33 115 20 19 -8 85 -34 145 -58z"/>
<path d="M1882 4707 c-19 -6 -55 -30 -82 -54 -107 -96 -107 -250 0 -346 96
-86 217 -90 311 -8 84 71 110 181 65 277 -53 113 -177 169 -294 131z"/>
<path d="M4362 1987 c-19 -6 -55 -30 -82 -54 -107 -96 -107 -250 0 -346 70
-63 146 -81 231 -55 89 26 169 135 169 228 0 93 -80 202 -169 228 -46 14 -104
14 -149 -1z"/>
<path d="M922 1427 c-19 -6 -55 -30 -82 -54 -107 -96 -107 -250 0 -346 96 -86
217 -90 311 -8 84 71 110 181 65 277 -53 113 -177 169 -294 131z"/>
</g>
</svg>
